<svg xmlns="http://www.w3.org/2000/svg" viewBox="0 0 192 192" width="192" height="192">
  <defs>
    <linearGradient id="bg192" x1="0%" y1="0%" x2="100%" y2="100%">
      <stop offset="0%" style="stop-color:#2563EB;stop-opacity:1" />
      <stop offset="100%" style="stop-color:#1d4ed8;stop-opacity:1" />
    </linearGradient>
  </defs>
  
  <!-- Background circle -->
  <circle cx="96" cy="96" r="88" fill="url(#bg192)" stroke="#1e40af" stroke-width="3"/>
  
  <!-- Translation/Language icon -->
  <g fill="white" stroke="none">
    <!-- Globe/World icon -->
    <circle cx="96" cy="96" r="45" fill="none" stroke="white" stroke-width="2.5"/>
    <path d="M51 96 Q73.5 75 96 96 Q118.5 117 141 96" stroke="white" stroke-width="2.5" fill="none"/>
    <path d="M51 96 Q73.5 117 96 96 Q118.5 75 141 96" stroke="white" stroke-width="2.5" fill="none"/>
    <line x1="96" y1="51" x2="96" y2="141" stroke="white" stroke-width="2.5"/>
    <line x1="51" y1="96" x2="141" y2="96" stroke="white" stroke-width="2.5"/>
    
    <!-- Text/Translation elements -->
    <rect x="67" y="120" width="22" height="3" rx="1.5" fill="white" opacity="0.9"/>
    <rect x="101" y="120" width="22" height="3" rx="1.5" fill="white" opacity="0.9"/>
    <rect x="71" y="127" width="15" height="2" rx="1" fill="white" opacity="0.7"/>
    <rect x="105" y="127" width="15" height="2" rx="1" fill="white" opacity="0.7"/>
    
    <!-- Arrow indicating translation -->
    <path d="M93 122 L99 122 L96 127 Z" fill="white" opacity="0.8"/>
  </g>
  
  <!-- ICE badge/shield element -->
  <g fill="white" opacity="0.9">
    <path d="M75 67 Q75 60 81 60 L111 60 Q117 60 117 67 L117 75 Q117 82 96 90 Q75 82 75 75 Z" 
          fill="white" stroke="#2563EB" stroke-width="1"/>
    <text x="96" y="73" text-anchor="middle" fill="#2563EB" font-family="Arial, sans-serif" font-size="6" font-weight="bold">ICE</text>
  </g>
</svg>
